<svg xmlns="http://www.w3.org/2000/svg" width="17" height="16" viewBox="0 0 17 16">
  <path fill="#FFF" fill-rule="evenodd" d="M7.56714929,10.9428752 L12.7729634,5.73706115 C13.1599801,5.35004438 13.1605613,4.72314741 12.7699955,4.33258161 L12.7008004,4.26338652 C12.3121446,3.87473066 11.6766025,3.8801371 11.2921745,4.26456504 L4.26402192,11.2927176 C3.87471518,11.6820244 3.87959398,12.3180941 4.26402192,12.7025221 L11.2921745,19.7306747 C11.6814813,20.1199814 12.3102346,20.122419 12.7008004,19.7318532 L12.7699955,19.6626581 C13.1586514,19.2740022 13.1561564,18.6413716 12.7729634,18.2581786 L7.56714929,13.0523645 L19.4253125,13.0523645 C19.9829661,13.0523645 20.4350338,12.6049961 20.4350338,12.0470449 L20.4350338,11.9481948 C20.4350338,11.3929721 19.9920921,10.9428752 19.4253125,10.9428752 L7.56714929,10.9428752 Z" transform="translate(-4 -4)"/>
</svg>
